<svg xmlns="http://www.w3.org/2000/svg" width="216.232" height="173.623" viewBox="0 0 216.232 173.623"><defs><style>.a{fill:#e0e3e4;}.b{fill:#d8dbdb;stroke:#c8cdcf;stroke-width:2px;}.c{fill:#c8cdcf;}</style></defs><g transform="translate(-3435 -2756)"><path class="a" d="M29.464,0H5.893A5.885,5.885,0,0,0,.029,5.893L0,53.034a5.885,5.885,0,0,0,5.863,5.893H41.249a5.91,5.91,0,0,0,5.893-5.893V17.678Zm5.893,47.142H11.785V41.249H35.356Zm0-11.785H11.785V29.464H35.356ZM26.517,20.625V4.42l16.2,16.2Z" transform="translate(3479.907 2795.118) rotate(-13)"/><path class="a" d="M35.64,0H7.128A7.118,7.118,0,0,0,.036,7.128L0,64.152A7.118,7.118,0,0,0,7.092,71.28H49.9a7.149,7.149,0,0,0,7.128-7.128V21.384Zm7.128,49.9H32.076V60.588H24.948V49.9H14.256V42.768H24.948V32.076h7.128V42.768H42.768ZM32.076,24.948V5.346l19.6,19.6Z" transform="translate(3573.51 2778.929) rotate(20)"/><path class="b" d="M56.4,4H15.6C8.121,4,2.068,9.589,2.068,16.419L2,90.935c0,6.831,6.121,12.419,13.6,12.419h108.81c7.481,0,13.6-5.589,13.6-12.419v-62.1c0-6.831-6.121-12.419-13.6-12.419h-54.4Z" transform="translate(3466.954 2825.269)"/><path class="c" d="M17.509,12.148H12.148v5.361H10.361V12.148H5V10.361h5.361V5h1.787v5.361h5.361Z" transform="translate(3430 2851.968)"/><path class="c" d="M17.509,12.148H12.148v5.361H10.361V12.148H5V10.361h5.361V5h1.787v5.361h5.361Z" transform="translate(3471.996 2753.681)"/><path class="c" d="M17.509,12.148H12.148v5.361H10.361V12.148H5V10.361h5.361V5h1.787v5.361h5.361Z" transform="translate(3633.723 2800.144)"/><path class="c" d="M12.268,9.153H9.153v3.115H8.115V9.153H5V8.115H8.115V5H9.153V8.115h3.115Z" transform="translate(3602.45 2776.019)"/><path class="c" d="M12.268,9.153H9.153v3.115H8.115V9.153H5V8.115H8.115V5H9.153V8.115h3.115Z" transform="translate(3502.375 2751)"/></g></svg>